<svg width="273" height="42" viewBox="0 0 273 42" fill="none" xmlns="http://www.w3.org/2000/svg">
<path d="M13.7828 27.3266H8.04916V41.4082H0.852539V2.9419H13.8309C17.9568 2.9419 21.1397 3.95452 23.3786 5.98013C25.6178 8.00575 26.7372 10.8678 26.7372 14.5662C26.7372 17.1907 26.2172 19.3835 25.178 21.1446C24.1544 22.8884 22.5949 24.2798 20.5 25.3191L28.0566 41.0385V41.4082H20.3318L13.7828 27.3266ZM8.04916 20.9071H13.8548C15.662 20.9071 17.0612 20.4051 18.053 19.4012C19.0445 18.3795 19.5403 16.9792 19.5403 15.2004C19.5403 13.3863 19.0684 11.9597 18.125 10.9204C17.1973 9.88144 15.7661 9.36179 13.8309 9.36179H8.04916V20.9071ZM30.6953 26.8513C30.6953 24.0156 31.191 21.488 32.1829 19.2689C33.1744 17.0498 34.5978 15.3327 36.4528 14.1172C38.3242 12.902 40.4911 12.2944 42.9541 12.2944C46.4567 12.2944 49.3114 13.4743 51.5185 15.8347C53.7413 18.1947 54.9808 21.4001 55.2367 25.451L55.2848 27.4059C55.2848 31.7916 54.1733 35.3141 51.9501 37.9736C49.7273 40.6158 46.7443 41.9365 43.0022 41.9365C39.2597 41.9365 36.2689 40.6158 34.03 37.9736C31.8069 35.3318 30.6953 31.739 30.6953 27.1948V26.8513ZM37.6285 27.4059C37.6285 30.1184 38.0922 32.1966 39.0199 33.641C39.9476 35.0676 41.2748 35.7808 43.0022 35.7808C44.6815 35.7808 45.9927 35.0763 46.9364 33.6673C47.8801 32.2409 48.3516 29.9688 48.3516 26.8513C48.3516 24.1919 47.8801 22.1309 46.9364 20.6693C45.9927 19.2073 44.6655 18.4765 42.9541 18.4765C41.2587 18.4765 39.9476 19.2073 39.0199 20.6693C38.0922 22.1133 37.6285 24.3591 37.6285 27.4059ZM70.3502 35.7808C71.6296 35.7808 72.6692 35.3934 73.469 34.6186C74.2684 33.8435 74.6843 32.8132 74.7163 31.5274H81.2176C81.2016 33.4647 80.7215 35.2439 79.7782 36.864C78.8344 38.467 77.539 39.7174 75.8917 40.6158C74.2605 41.4962 72.4533 41.9365 70.4703 41.9365C66.7596 41.9365 63.8329 40.6421 61.6899 38.0529C59.5469 35.4464 58.4753 31.8532 58.4753 27.274V26.7721C58.4753 22.3688 59.5387 18.8552 61.666 16.2307C63.793 13.6065 66.7118 12.2944 70.4222 12.2944C73.6686 12.2944 76.2677 13.3157 78.2186 15.359C80.1859 17.3842 81.1855 20.088 81.2176 23.4697H74.7163C74.6843 21.99 74.2684 20.7925 73.469 19.8765C72.6692 18.9432 71.6136 18.4765 70.3021 18.4765C68.6869 18.4765 67.4634 19.128 66.632 20.4315C65.8162 21.7172 65.4085 23.8131 65.4085 26.7191V27.5119C65.4085 30.4532 65.8162 32.5667 66.632 33.8525C67.4474 35.1379 68.6869 35.7808 70.3502 35.7808ZM94.6037 29.9422L92.1086 32.69V41.4082H85.1757V0.828369H92.1086V23.3111L93.4522 21.4087L100.097 12.8227H108.422L99.0418 24.7378L109.237 41.4082H101.273L94.6037 29.9422ZM122.887 41.9365C119.081 41.9365 115.978 40.6508 113.579 38.0796C111.197 35.508 110.005 32.0824 110.005 27.8023V27.0625C110.005 24.1919 110.509 21.6289 111.516 19.3745C112.524 17.1024 113.947 15.359 115.786 14.1438C117.642 12.9107 119.753 12.2944 122.12 12.2944C125.67 12.2944 128.461 13.5272 130.492 15.9928C132.539 18.4588 133.563 21.9551 133.563 26.4812V29.5987H117.034C117.258 31.4658 117.929 32.9627 119.049 34.09C120.184 35.2172 121.616 35.7808 123.343 35.7808C126.014 35.7808 128.101 34.7156 129.604 32.5844L133.011 36.7848C131.971 38.4053 130.564 39.6735 128.789 40.5891C127.014 41.4875 125.046 41.9365 122.887 41.9365ZM122.096 18.4765C120.72 18.4765 119.601 18.9871 118.737 20.0087C117.89 21.0304 117.346 22.492 117.106 24.3944H126.75V23.7868C126.718 22.096 126.302 20.7925 125.502 19.8765C124.703 18.9432 123.567 18.4765 122.096 18.4765ZM145.821 5.79527V12.8227H150.259V18.4235H145.821V32.69C145.821 33.7465 146.005 34.504 146.373 34.9621C146.741 35.4197 147.445 35.6489 148.484 35.6489C149.252 35.6489 149.932 35.5873 150.523 35.464V41.2497C149.164 41.7077 147.764 41.9365 146.325 41.9365C141.463 41.9365 138.984 39.2331 138.888 33.8258V18.4235H135.098V12.8227H138.888V5.79527H145.821ZM182.98 41.4082H175.785L161.774 16.0988V41.4082H154.577V2.9419H161.774L175.808 28.3043V2.9419H182.98V41.4082ZM200.756 41.9365C196.952 41.9365 193.847 40.6508 191.448 38.0796C189.067 35.508 187.876 32.0824 187.876 27.8023V27.0625C187.876 24.1919 188.378 21.6289 189.388 19.3745C190.394 17.1024 191.817 15.359 193.656 14.1438C195.512 12.9107 197.624 12.2944 199.988 12.2944C203.54 12.2944 206.331 13.5272 208.361 15.9928C210.408 18.4588 211.432 21.9551 211.432 26.4812V29.5987H194.905C195.126 31.4658 195.798 32.9627 196.918 34.09C198.054 35.2172 199.487 35.7808 201.213 35.7808C203.885 35.7808 205.973 34.7156 207.474 32.5844L210.882 36.7848C209.842 38.4053 208.433 39.6735 206.658 40.5891C204.884 41.4875 202.916 41.9365 200.756 41.9365ZM199.964 18.4765C198.589 18.4765 197.47 18.9871 196.607 20.0087C195.761 21.0304 195.215 22.492 194.976 24.3944H204.621V23.7868C204.587 22.096 204.171 20.7925 203.373 19.8765C202.574 18.9432 201.438 18.4765 199.964 18.4765ZM237.965 31.0254L241.37 12.8227H248.065L241.442 41.4082H235.639L230.722 23.4167L225.802 41.4082H220.023L213.4 12.8227H220.094L223.475 30.9991L228.225 12.8227H233.24L237.965 31.0254ZM265.578 33.5091C265.578 32.5754 265.155 31.8445 264.305 31.3163C263.476 30.7703 262.132 30.2856 260.276 29.8629C254.104 28.4366 251.016 25.5479 251.016 21.1976C251.016 18.6613 251.968 16.5478 253.872 14.857C255.789 13.1485 258.293 12.2944 261.378 12.2944C264.673 12.2944 267.304 13.1485 269.273 14.857C271.255 16.5655 272.248 18.7846 272.248 21.5147H265.315C265.315 20.4224 264.994 19.5244 264.353 18.8199C263.715 18.0977 262.715 17.7366 261.354 17.7366C260.187 17.7366 259.283 18.0271 258.645 18.6084C258.003 19.1896 257.686 19.9295 257.686 20.8279C257.686 21.6733 258.044 22.3601 258.764 22.8884C259.501 23.399 260.733 23.8484 262.459 24.2358C264.186 24.6055 265.642 25.0282 266.826 25.5039C270.487 26.9832 272.319 29.5461 272.319 33.1919C272.319 35.7984 271.303 37.912 269.273 39.5325C267.239 41.1351 264.619 41.9365 261.401 41.9365C259.228 41.9365 257.294 41.5138 255.598 40.6684C253.919 39.8053 252.599 38.6342 251.64 37.1549C250.681 35.6575 250.2 34.046 250.2 32.3199H256.772C256.836 33.6763 257.294 34.7156 258.14 35.4374C258.989 36.1595 260.122 36.5206 261.548 36.5206C262.875 36.5206 263.875 36.2478 264.547 35.7015C265.233 35.1379 265.578 34.4071 265.578 33.5091Z" fill="#E1E1E6"/>
</svg>
